<?xml version="1.0" encoding="UTF-8" standalone="no"?><!DOCTYPE svg PUBLIC "-//W3C//DTD SVG 1.1//EN" "http://www.w3.org/Graphics/SVG/1.1/DTD/svg11.dtd"><svg width="100%" height="100%" viewBox="0 0 200 200" version="1.1" xmlns="http://www.w3.org/2000/svg" xmlns:xlink="http://www.w3.org/1999/xlink" xml:space="preserve" xmlns:serif="http://www.serif.com/" style="fill-rule:evenodd;clip-rule:evenodd;stroke-linejoin:round;stroke-miterlimit:1.41421;"><path d="M0,0l200,0l0,200l-200,0l0,-200Zm66.1,117.4l13.4,-4l-8,-26.9c-1,-3.4 -4.4,-5.5 -7.8,-4.9l-27.7,4.5l2.2,13.8l9.4,-1.5l-20.2,30.8c-2.8,4.3 -3.1,9.8 -0.6,14.3c2.4,4.5 7.2,7.4 12.3,7.4l31.3,0l-0.1,-14l-31.3,0l22.6,-34.4l4.5,14.9Zm33.9,-73.2l24.4,37l-13.5,-2.3l-2.4,13.8l27.6,4.7c0.4,0.1 0.8,0.1 1.2,0.1c3,0 5.8,-2 6.7,-4.9l8.3,-26.8l-13.4,-4.1l-3.4,11.1l-23.9,-36.2c-2.6,-3.9 -7,-6.3 -11.7,-6.3c-4.7,0 -9.1,2.4 -11.7,6.3l-20.8,31.7l11.9,7.4l20.7,-31.5Zm72.7,84.9l-19.3,-29.4l-11.5,8l19.2,29.1l-54.6,0l8.3,-8.6l-10.1,-9.7l-19.5,20.2c-2.4,2.5 -2.6,6.5 -0.4,9.2l17.5,21.9l10.9,-8.7l-8.2,-10.3l56,0c5.1,0 9.9,-2.8 12.3,-7.4c2.5,-4.5 2.2,-10 -0.6,-14.3Z" style="fill:#2e7400;fill-rule:nonzero;"/></svg>
