<?xml version="1.0" encoding="utf-8"?>
<!-- Generator: Adobe Illustrator 19.0.0, SVG Export Plug-In . SVG Version: 6.00 Build 0)  -->
<svg version="1.1" id="Layer_1" xmlns="http://www.w3.org/2000/svg" xmlns:xlink="http://www.w3.org/1999/xlink" x="0px" y="0px"
	 viewBox="-275 198.4 85.2 85.2" style="enable-background:new -275 198.4 85.2 85.2;" xml:space="preserve">
<style type="text/css">
	.st0{fill:#252525;}
	.st1{fill:#252525;stroke:#F8F8FF;stroke-width:2;stroke-miterlimit:10;}
	.st2{display:none;}
	.st3{display:inline;fill:none;stroke:#009433;stroke-width:2.5;stroke-miterlimit:10;}
	.st4{fill:#F8F8FF;}
</style>
<circle class="st0" cx="-232.4" cy="241" r="42.6"/>
<circle class="st1" cx="-232.4" cy="241" r="36.6"/>
<g class="st2">
	<line class="st3" x1="-784.9" y1="771.9" x2="-784.9" y2="810.2"/>
	<path class="st3" d="M-780,773.5c0,0-0.1,12.8-0.1,14.7c0,0.3,0.3-2.7,2.4-4.5c0.6-0.5,1.3-0.9,1.3-0.9c0.2-0.1,0.8-0.4,1.6-0.6
		c1.2-0.3,2.1-0.3,2.8-0.3c0.4,0,1.1,0.1,2.4,0.3c1.2,0.2,1.8,0.3,2.3,0.4c0.6,0.2,1.4,0.4,2.3,1c1.7,0.9,2.8,1.8,3.4,2.3
		c0.5,0.4,0.7,0.7,0.9,0.9c0.6,0.7,1,1.4,1.3,2.2c0.9,0,1.6,2.2,1.6,5c0,5.6,2.8,10.1,6.3,10.1c3.9,0,7.3,1,9.5,0.3"/>
	<path class="st3" d="M-780,807.9c0-2.3,0.1-4.6,0.1-6.8c0-0.8,0.1-2.9,0.1-3.5c0-0.1,0-0.2,0-0.2c0-0.2,0-1.1,0-2.4
		c0-0.1,0-0.2,0-0.2c0-0.5,0-1.1,0.1-1.8c0.2-1.1,0.7-2,1-2.6c0.6-1,1.2-1.6,1.7-2c2.1-1.8,4.7-1.9,5.4-1.9c0.2,0,0.3,0,0.3,0
		c4.8,0,8.8,2.9,8.8,6.4c0,4.7,1.4,8.9,3.7,11.7c1.9,2.4,4.5,3.9,7.3,3.9c4.3,0,7.7,0.5,9.5,0"/>
	<line class="st3" x1="-761.5" y1="771.4" x2="-761.5" y2="781.9"/>
	<line class="st3" x1="-757.8" y1="773.5" x2="-757.8" y2="789.7"/>
	<line class="st3" x1="-757.8" y1="789.7" x2="-743.6" y2="789.7"/>
	<line class="st3" x1="-755.2" y1="794.4" x2="-741.6" y2="794.5"/>
	<path class="st3" d="M-780,808.1"/>
</g>
<g>
	<path class="st4" d="M-229.4,229.8c0-3.4,0-6.9,0-10.3c0.7,0.1,1.9,0.3,2.7,0.4c0.1,2.7-0.1,8.9,0,11.8"/>
	<path class="st4" d="M-250,258.7c-0.4,0.3-1.9,0.4-2.4,0.5c0-13.2,0-26.5,0-39.7c0.8,0.1,1.6,0.2,2.4,0.3"/>
	<path class="st4" d="M-221.8,239c-0.5-2.2-1.5-3.3-1.9-3.8c-0.2-0.4-0.5-0.6-0.5-0.6c-0.3-0.3-0.5-0.5-0.7-0.7c0-4.2,0-8.3,0-12.5
		c0.1,0-0.1,0,0,0c0,0.1,0-0.1,0,0c0.1,0.1,0,0.1,0,0c0.6,1.1,2.1,2.5,2.4,3.8c0,3.9,0,7.8,0,11.7c3.3,0,6.5,0,9.8,0
		c1.3,0.4,3.3,2.2,3.3,2.2s0.7,0,0,0"/>
	<path class="st4" d="M-247.3,221.9c0.8,0.7,1.4,2.2,1.5,3.3c0.2,1.6,0.2,4.6,0.2,6.1c0.9-1,4.2-1.9,5.4-2.1l2.1-0.2
		c7.9-0.2,13.6,5.5,15.2,10.3c0.6,1.9,0.3,4.3,0.5,6.2c0.2,1.2,0.6,2.3,1.5,3.5c0,0,0.9,0.9,2,1.7c2,1.3,6,1.4,11.2,1.1v2.4
		c-5.3,0-10,0.3-13.1-1.9c-2-1.5-3.4-4.3-4-7.1l-0.3-3c0-0.7-0.3-2.4-0.6-3.2c-1.4-3.3-4.4-6-7.9-7.3c-5.5-2.1-13,1.6-14.6,5.1l0,0
		c0-5,0-10.4,0-15.4"/>
	<path class="st4" d="M-248,241.4c0.6-2.3,1.1-2.5,2.3-4.2c3-4.1,10.5-4.4,14.7-1.3c0.6,0.5,1.1,0.9,1.5,1.5c0.8,1.1,1.5,2.3,1.7,4
		c0.1,0.8,0.3,1.8,0.3,2.6c0.3,1.7,0.8,3.4,1.4,5.1c0.2,0.6,0.6,1.3,1.3,2.3c0,0,1.6,2.2,3.4,3.3c3.2,2,7.3,2.1,13.8,2.1
		c0,0.8,0,1.6,0,2.4c-11.1,0-16.1-0.9-20.3-7.9c-1.2-2-1.5-4.8-1.9-7.3c-0.1-0.7-0.3-1.6-0.4-2.3c-0.3-0.9-0.9-3.4-2.7-4.6
		c-2.3-1.5-6.1-1.9-9.1-0.1c-2.8,1.7-3.4,4.5-3.5,5.1c-0.2,1,0,2.5,0,3.5c0,2.3,0.1,5.9-2.4,11.4"/>
	<path class="st4" d="M-221.2,241.4c4.5,0,13.6,0,13.6,0s0,1.6,0,2.4c-17,0-9,0-13.5,0C-221.1,243-221.1,242.2-221.2,241.4z"/>
</g>
</svg>
