<?xml version="1.0" encoding="UTF-8" standalone="no"?><!DOCTYPE svg PUBLIC "-//W3C//DTD SVG 1.1//EN" "http://www.w3.org/Graphics/SVG/1.1/DTD/svg11.dtd"><svg width="100%" height="100%" viewBox="0 0 200 200" version="1.1" xmlns="http://www.w3.org/2000/svg" xmlns:xlink="http://www.w3.org/1999/xlink" xml:space="preserve" xmlns:serif="http://www.serif.com/" style="fill-rule:evenodd;clip-rule:evenodd;stroke-miterlimit:10;"><rect x="0" y="0" width="200" height="200" style="fill:#ff8615;"/><g><path d="M135.9,95.3c-0.9,0 -1.6,-0.6 -1.6,-1.6c0,-19.1 -15.3,-30.8 -34.4,-30.8c-19.1,0 -34.4,11.7 -34.4,30.8c0,0.9 -0.6,1.6 -1.6,1.6c-1,0 -1.6,-0.6 -1.6,-1.6c0,-20.6 16.9,-37.5 37.5,-37.5c20.6,0 37.5,16.9 37.5,37.5c0.2,1 -0.4,1.6 -1.4,1.6Z" style="fill:#fff;fill-rule:nonzero;"/><path d="M125,94.8c0.4,-19.6 -11,-31.8 -25,-31.8c-14,0 -25.4,12.3 -25,31.8c-1.7,1 -3.1,0.3 -3.1,-1.1c0,-20.6 12.5,-37.5 28.1,-37.5c15.6,0 28.1,16.9 28.1,37.5c0,1.4 -1.4,2.2 -3.1,1.1Z" style="fill:#fff;fill-rule:nonzero;"/><path d="M110.9,95.3c-0.9,0 -1.6,-0.6 -1.6,-1.6c0,-21.3 -5.3,-28.8 -9.4,-28.8c-4.1,0 -9.4,7.5 -9.4,28.8c0,0.9 -0.6,1.6 -1.6,1.6c-1,0 -1.6,-0.6 -1.6,-1.6c0,-18.1 4.4,-37.5 12.5,-37.5c8.1,0 12.5,19.4 12.5,37.5c0.2,1 -0.4,1.6 -1.4,1.6Z" style="fill:#fff;fill-rule:nonzero;"/><path d="M110.9,95.3c-0.9,0 -1.6,-0.6 -1.6,-1.6c0,-1.3 -3.4,-3.1 -9.4,-3.1c-6,0 -9.4,1.9 -9.4,3.1c0,0.9 -0.6,1.6 -1.6,1.6c-1,0 -1.6,-0.6 -1.6,-1.6c0,-11.3 25,-11.3 25,0c0.2,1 -0.4,1.6 -1.4,1.6Z" style="fill:#fff;fill-rule:nonzero;"/><path d="M89.1,95.3c-0.9,0 -1.6,-0.6 -1.6,-1.6c0,-1.6 -2.8,-3.1 -6.3,-3.1c-3.5,0 -6.3,1.6 -6.3,3.1c0,0.9 -0.6,1.6 -1.6,1.6c-1,0 -1.6,-0.6 -1.6,-1.6c0,-3.4 4.1,-9.8 9.4,-9.8c5.3,0 9.4,6.3 9.4,9.8c0.1,1 -0.5,1.6 -1.4,1.6Z" style="fill:#fff;fill-rule:nonzero;"/><path d="M126.6,95.3c-0.9,0 -1.6,-0.6 -1.6,-1.6c0,-1.6 -2.8,-3.1 -6.3,-3.1c-3.5,0 -6.3,1.6 -6.3,3.1c0,0.9 -0.6,1.6 -1.6,1.6c-1,0 -1.6,-0.6 -1.6,-1.6c0,-3.4 4.1,-8.5 9.4,-8.5c5.3,0 9.4,5.1 9.4,8.5c0.1,1 -0.5,1.6 -1.4,1.6Z" style="fill:#fff;fill-rule:nonzero;"/><path d="M135.9,95.3c-0.9,0 -1.6,-0.6 -1.6,-1.6c0,-1.9 -1.3,-3.1 -3.1,-3.1c-1.8,0 -3.1,1.3 -3.1,3.1c0,0.9 -0.6,1.6 -1.6,1.6c-1,0 -1.6,-0.6 -1.6,-1.6c0,-3.4 2.8,-8.5 6.3,-8.5c3.5,0 6.3,5.1 6.3,8.5c0,1 -0.6,1.6 -1.6,1.6Z" style="fill:#fff;fill-rule:nonzero;"/><path d="M73.4,95.3c-0.9,0 -1.6,-0.6 -1.6,-1.6c0,-1.9 -1.3,-3.1 -3.1,-3.1c-1.8,0 -3.1,1.3 -3.1,3.1c0,0.9 -0.6,1.6 -1.6,1.6c-1,0 -1.6,-0.6 -1.6,-1.6c0,-3.4 2.8,-8.5 6.3,-8.5c3.5,0 6.3,5.1 6.3,8.5c0,1 -0.6,1.6 -1.6,1.6Z" style="fill:#fff;fill-rule:nonzero;"/><path d="M95.3,146.9c-5.1,-0.4 -4.5,-2.9 -7.8,-3.9c-4.8,-1.4 -6.3,-11.1 3.1,-6c0.8,0.4 1.6,2.7 1.6,3.6c0,1.9 1.3,3.1 3.1,3.1c1.8,0 3.1,-1.3 3.1,-3.1l0,-51.6c0,-0.9 0.6,-1.6 1.6,-1.6c1,0 1.6,0.6 1.6,1.6l0,51.6c0.4,3.9 -1.7,6.6 -6.3,6.3Z" style="fill:#fff;fill-rule:nonzero;"/></g><path d="M100,175c-41.3,0 -75,-33.8 -75,-75c0,-41.2 33.8,-75 75,-75c41.2,0 75,33.8 75,75c0,41.2 -33.8,75 -75,75Zm0,-143.2c-39.7,0 -68.8,28.6 -68.8,68.3c0,39.7 29.4,69.3 69.1,69.3c39.7,0 69.1,-27.8 69.1,-67.5c0,-39.7 -29.7,-70.1 -69.4,-70.1Z" style="fill:#fff;fill-rule:nonzero;stroke:#fff;stroke-width:1px;"/></svg>
