<?xml version="1.0" encoding="UTF-8" standalone="no"?><!DOCTYPE svg PUBLIC "-//W3C//DTD SVG 1.1//EN" "http://www.w3.org/Graphics/SVG/1.1/DTD/svg11.dtd"><svg width="100%" height="100%" viewBox="0 0 200 200" version="1.1" xmlns="http://www.w3.org/2000/svg" xmlns:xlink="http://www.w3.org/1999/xlink" xml:space="preserve" xmlns:serif="http://www.serif.com/" style="fill-rule:evenodd;clip-rule:evenodd;stroke-miterlimit:10;"><rect x="-12.144" y="-5.587" width="218.045" height="208.77" style="fill:#ffb4b6;stroke:#ffb4b6;stroke-width:3.2px;"/><g><path d="M32.2,124.6c-0.3,-0.3 -0.5,-0.7 -0.5,-1.2l0,-46.9c0,-0.5 0.2,-1 0.5,-1.3c0.3,-0.3 0.7,-0.5 1.3,-0.5l31.8,0c0.5,0 1,0.2 1.3,0.5c0.3,0.3 0.5,0.8 0.5,1.3l0,4.8c0,0.5 -0.2,0.9 -0.5,1.3c-0.3,0.3 -0.8,0.5 -1.3,0.5l-23.6,0l0,12.6l22,0c0.5,0 1,0.2 1.3,0.5c0.3,0.3 0.5,0.8 0.5,1.3l0,4.5c0,0.5 -0.2,0.9 -0.5,1.3c-0.3,0.3 -0.8,0.5 -1.3,0.5l-22,0l0,13l24.2,0c0.5,0 1,0.2 1.3,0.5c0.3,0.3 0.5,0.7 0.5,1.3l0,4.9c0,0.5 -0.2,0.9 -0.5,1.3c-0.3,0.3 -0.8,0.5 -1.3,0.5l-32.3,0c-0.7,-0.2 -1.1,-0.3 -1.4,-0.7Z" style="fill:#fff;fill-rule:nonzero;"/><path d="M77,124.6c-0.3,-0.3 -0.5,-0.7 -0.5,-1.2l0,-46.9c0,-0.5 0.2,-1 0.5,-1.3c0.3,-0.3 0.7,-0.5 1.3,-0.5l17.6,0c14.2,0 21.4,6.5 21.7,19.6c0.1,2.8 0.1,4.7 0.1,5.6c0,0.9 0,2.8 -0.1,5.5c-0.2,6.7 -2,11.7 -5.4,14.9c-3.4,3.2 -8.7,4.8 -15.9,4.8l-17.9,0c-0.6,0 -1.1,-0.1 -1.4,-0.5Zm18.8,-7.8c4,0 6.9,-0.9 8.6,-2.7c1.8,-1.8 2.7,-4.7 2.8,-8.9c0.1,-2.9 0.1,-4.7 0.1,-5.4c0,-0.8 0,-2.5 -0.1,-5.3c-0.1,-3.9 -1.1,-6.8 -3,-8.7c-1.9,-1.8 -4.8,-2.8 -8.9,-2.8l-8.8,0l0,33.7l9.3,0.1Z" style="fill:#fff;fill-rule:nonzero;"/><path d="M127.6,124.6c-0.3,-0.3 -0.5,-0.7 -0.5,-1.2l0,-46.9c0,-0.5 0.2,-1 0.5,-1.3c0.3,-0.3 0.7,-0.5 1.3,-0.5l17.6,0c14.2,0 21.4,6.5 21.7,19.6c0.1,2.8 0.1,4.7 0.1,5.6c0,0.9 0,2.8 -0.1,5.5c-0.2,6.7 -2,11.7 -5.4,14.9c-3.4,3.2 -8.7,4.8 -15.9,4.8l-17.9,0c-0.6,0 -1,-0.1 -1.4,-0.5Zm18.8,-7.8c4,0 6.9,-0.9 8.6,-2.7c1.8,-1.8 2.7,-4.7 2.8,-8.9c0.1,-2.9 0.1,-4.7 0.1,-5.4c0,-0.8 0,-2.5 -0.1,-5.3c-0.1,-3.9 -1.1,-6.8 -3,-8.7c-1.9,-1.8 -4.8,-2.8 -8.9,-2.8l-8.8,0l0,33.7l9.3,0.1Z" style="fill:#fff;fill-rule:nonzero;"/></g></svg>
