<?xml version="1.0" encoding="utf-8"?>
<!-- Generator: Adobe Illustrator 19.0.0, SVG Export Plug-In . SVG Version: 6.00 Build 0)  -->
<svg version="1.1" id="Layer_1" xmlns="http://www.w3.org/2000/svg" xmlns:xlink="http://www.w3.org/1999/xlink" x="0px" y="0px"
	 viewBox="-219 141 200 200" style="enable-background:new -219 141 200 200;" xml:space="preserve">
<style type="text/css">
	.st0{fill:none;stroke:#FFB4B6;stroke-width:2.91;stroke-miterlimit:10;}
	.st1{clip-path:url(#SVGID_2_);}
	.st2{fill:#FFB4B6;}
</style>
<rect x="-215" y="144" class="st0" width="194" height="194"/>
<g>
	<g>
		<g>
			<defs>
				<rect id="SVGID_1_" x="-219" y="141" width="200" height="200"/>
			</defs>
			<clipPath id="SVGID_2_">
				<use xlink:href="#SVGID_1_"  style="overflow:visible;"/>
			</clipPath>
			<g class="st1">
				<path class="st2" d="M-178.5,261.6c-0.3-0.3-0.5-0.7-0.5-1.2v-46.9c0-0.5,0.2-1,0.5-1.3s0.7-0.5,1.3-0.5h31.8
					c0.5,0,1,0.2,1.3,0.5s0.5,0.8,0.5,1.3v4.8c0,0.5-0.2,0.9-0.5,1.3c-0.3,0.3-0.8,0.5-1.3,0.5H-169v12.6h22c0.5,0,1,0.2,1.3,0.5
					s0.5,0.8,0.5,1.3v4.5c0,0.5-0.2,0.9-0.5,1.3c-0.3,0.3-0.8,0.5-1.3,0.5h-22v13h24.2c0.5,0,1,0.2,1.3,0.5s0.5,0.7,0.5,1.3v4.9
					c0,0.5-0.2,0.9-0.5,1.3c-0.3,0.3-0.8,0.5-1.3,0.5h-32.3C-177.8,262.1-178.2,262-178.5,261.6z"/>
				<path class="st2" d="M-133.7,261.6c-0.3-0.3-0.5-0.7-0.5-1.2v-46.9c0-0.5,0.2-1,0.5-1.3s0.7-0.5,1.3-0.5h17.6
					c14.2,0,21.4,6.5,21.7,19.6c0.1,2.8,0.1,4.7,0.1,5.6c0,0.9,0,2.8-0.1,5.5c-0.2,6.7-2,11.7-5.4,14.9s-8.7,4.8-15.9,4.8h-17.9
					C-132.9,262.1-133.4,262-133.7,261.6z M-114.9,253.8c4,0,6.9-0.9,8.6-2.7c1.8-1.8,2.7-4.7,2.8-8.9c0.1-2.9,0.1-4.7,0.1-5.4
					c0-0.8,0-2.5-0.1-5.3c-0.1-3.9-1.1-6.8-3-8.7c-1.9-1.8-4.8-2.8-8.9-2.8h-8.8v33.7L-114.9,253.8L-114.9,253.8z"/>
				<path class="st2" d="M-83.1,261.6c-0.3-0.3-0.5-0.7-0.5-1.2v-46.9c0-0.5,0.2-1,0.5-1.3s0.7-0.5,1.3-0.5h17.6
					c14.2,0,21.4,6.5,21.7,19.6c0.1,2.8,0.1,4.7,0.1,5.6c0,0.9,0,2.8-0.1,5.5c-0.2,6.7-2,11.7-5.4,14.9s-8.7,4.8-15.9,4.8h-17.9
					C-82.3,262.1-82.7,262-83.1,261.6z M-64.3,253.8c4,0,6.9-0.9,8.6-2.7c1.8-1.8,2.7-4.7,2.8-8.9c0.1-2.9,0.1-4.7,0.1-5.4
					c0-0.8,0-2.5-0.1-5.3c-0.1-3.9-1.1-6.8-3-8.7c-1.9-1.8-4.8-2.8-8.9-2.8h-8.8v33.7L-64.3,253.8L-64.3,253.8z"/>
			</g>
		</g>
	</g>
</g>
</svg>
