<?xml version="1.0" encoding="utf-8"?>
<!-- Generator: Adobe Illustrator 19.0.0, SVG Export Plug-In . SVG Version: 6.00 Build 0)  -->
<svg version="1.1" id="Layer_1" xmlns="http://www.w3.org/2000/svg" xmlns:xlink="http://www.w3.org/1999/xlink" x="0px" y="0px"
	 viewBox="-219 141 200 200" style="enable-background:new -219 141 200 200;" xml:space="preserve">
<style type="text/css">
	.st0{fill:#FF8615;}
	.st1{fill:#FFFFFF;}
	.st2{fill:#FFFFFF;stroke:#FFFFFF;stroke-miterlimit:10;}
</style>
<rect x="-219" y="141" class="st0" width="200" height="200"/>
<g>
	<g>
		<g>
			<path class="st1" d="M-83.1,236.3c-0.9,0-1.6-0.6-1.6-1.6c0-19.1-15.3-30.8-34.4-30.8s-34.4,11.7-34.4,30.8
				c0,0.9-0.6,1.6-1.6,1.6s-1.6-0.6-1.6-1.6c0-20.6,16.9-37.5,37.5-37.5s37.5,16.9,37.5,37.5C-81.5,235.7-82.1,236.3-83.1,236.3z"/>
		</g>
	</g>
	<g>
		<g>
			<path class="st1" d="M-94,235.8c0.4-19.6-11-31.8-25-31.8s-25.4,12.3-25,31.8c-1.7,1-3.1,0.3-3.1-1.1c0-20.6,12.5-37.5,28.1-37.5
				s28.1,16.9,28.1,37.5C-90.9,236.1-92.3,236.9-94,235.8z"/>
		</g>
	</g>
	<g>
		<g>
			<path class="st1" d="M-108.1,236.3c-0.9,0-1.6-0.6-1.6-1.6c0-21.3-5.3-28.8-9.4-28.8s-9.4,7.5-9.4,28.8c0,0.9-0.6,1.6-1.6,1.6
				s-1.6-0.6-1.6-1.6c0-18.1,4.4-37.5,12.5-37.5s12.5,19.4,12.5,37.5C-106.5,235.7-107.1,236.3-108.1,236.3z"/>
		</g>
	</g>
	<g>
		<g>
			<path class="st1" d="M-108.1,236.3c-0.9,0-1.6-0.6-1.6-1.6c0-1.3-3.4-3.1-9.4-3.1s-9.4,1.9-9.4,3.1c0,0.9-0.6,1.6-1.6,1.6
				s-1.6-0.6-1.6-1.6c0-11.3,25-11.3,25,0C-106.5,235.7-107.1,236.3-108.1,236.3z"/>
		</g>
	</g>
	<g>
		<g>
			<path class="st1" d="M-129.9,236.3c-0.9,0-1.6-0.6-1.6-1.6c0-1.6-2.8-3.1-6.3-3.1s-6.3,1.6-6.3,3.1c0,0.9-0.6,1.6-1.6,1.6
				s-1.6-0.6-1.6-1.6c0-3.4,4.1-9.8,9.4-9.8s9.4,6.3,9.4,9.8C-128.4,235.7-129,236.3-129.9,236.3z"/>
		</g>
	</g>
	<g>
		<g>
			<path class="st1" d="M-92.4,236.3c-0.9,0-1.6-0.6-1.6-1.6c0-1.6-2.8-3.1-6.3-3.1s-6.3,1.6-6.3,3.1c0,0.9-0.6,1.6-1.6,1.6
				s-1.6-0.6-1.6-1.6c0-3.4,4.1-8.5,9.4-8.5s9.4,5.1,9.4,8.5C-90.9,235.7-91.5,236.3-92.4,236.3z"/>
		</g>
	</g>
	<g>
		<g>
			<path class="st1" d="M-83.1,236.3c-0.9,0-1.6-0.6-1.6-1.6c0-1.9-1.3-3.1-3.1-3.1s-3.1,1.3-3.1,3.1c0,0.9-0.6,1.6-1.6,1.6
				s-1.6-0.6-1.6-1.6c0-3.4,2.8-8.5,6.3-8.5s6.3,5.1,6.3,8.5C-81.5,235.7-82.1,236.3-83.1,236.3z"/>
		</g>
	</g>
	<g>
		<g>
			<path class="st1" d="M-145.6,236.3c-0.9,0-1.6-0.6-1.6-1.6c0-1.9-1.3-3.1-3.1-3.1s-3.1,1.3-3.1,3.1c0,0.9-0.6,1.6-1.6,1.6
				s-1.6-0.6-1.6-1.6c0-3.4,2.8-8.5,6.3-8.5s6.3,5.1,6.3,8.5C-144,235.7-144.6,236.3-145.6,236.3z"/>
		</g>
	</g>
	<g>
		<g>
			<path class="st1" d="M-123.7,287.9c-5.1-0.4-4.5-2.9-7.8-3.9c-4.8-1.4-6.3-11.1,3.1-6c0.8,0.4,1.6,2.7,1.6,3.6
				c0,1.9,1.3,3.1,3.1,3.1s3.1-1.3,3.1-3.1v-51.6c0-0.9,0.6-1.6,1.6-1.6s1.6,0.6,1.6,1.6v51.6C-117,285.5-119.1,288.2-123.7,287.9z"
				/>
		</g>
	</g>
</g>
<g>
	<path class="st2" d="M-119,316c-41.3,0-75-33.8-75-75s33.8-75,75-75s75,33.8,75,75S-77.8,316-119,316z M-119,172.8
		c-39.7,0-68.8,28.6-68.8,68.3s29.4,69.3,69.1,69.3s69.1-27.8,69.1-67.5S-79.3,172.8-119,172.8z"/>
</g>
</svg>
