<?xml version="1.0" encoding="utf-8"?>
<!-- Generator: Adobe Illustrator 19.0.0, SVG Export Plug-In . SVG Version: 6.00 Build 0)  -->
<svg version="1.1" id="Layer_1" xmlns="http://www.w3.org/2000/svg" xmlns:xlink="http://www.w3.org/1999/xlink" x="0px" y="0px"
	 viewBox="-219 141 200 200" style="enable-background:new -219 141 200 200;" xml:space="preserve">
<style type="text/css">
	.st0{fill:#2E7400;}
</style>
<path class="st0" d="M-219,141h200v200h-200V141z M-152.9,258.4l13.4-4l-8-26.9c-1-3.4-4.4-5.5-7.8-4.9l-27.7,4.5l2.2,13.8l9.4-1.5
	l-20.2,30.8c-2.8,4.3-3.1,9.8-0.6,14.3c2.4,4.5,7.2,7.4,12.3,7.4h31.3l-0.1-14H-180l22.6-34.4L-152.9,258.4z M-119,185.2l24.4,37
	l-13.5-2.3l-2.4,13.8l27.6,4.7c0.4,0.1,0.8,0.1,1.2,0.1c3,0,5.8-2,6.7-4.9l8.3-26.8l-13.4-4.1l-3.4,11.1l-23.9-36.2
	c-2.6-3.9-7-6.3-11.7-6.3s-9.1,2.4-11.7,6.3l-20.8,31.7l11.9,7.4L-119,185.2z M-46.3,270.1l-19.3-29.4l-11.5,8l19.2,29.1h-54.6
	l8.3-8.6l-10.1-9.7l-19.5,20.2c-2.4,2.5-2.6,6.5-0.4,9.2l17.5,21.9l10.9-8.7l-8.2-10.3h56c5.1,0,9.9-2.8,12.3-7.4
	C-43.2,279.9-43.5,274.4-46.3,270.1z"/>
</svg>
